<?xml version="1.0" standalone="no"?>
<!DOCTYPE svg PUBLIC "-//W3C//DTD SVG 20010904//EN"
 "http://www.w3.org/TR/2001/REC-SVG-20010904/DTD/svg10.dtd">
<svg version="1.0" xmlns="http://www.w3.org/2000/svg"
 width="512.000000pt" height="512.000000pt" viewBox="0 0 512.000000 512.000000"
 preserveAspectRatio="xMidYMid meet">
<metadata>
Created by potrace 1.14, written by Peter Selinger 2001-2017
</metadata>
<g transform="translate(0.000000,512.000000) scale(0.100000,-0.100000)"
fill="#000000" stroke="none">
<path d="M0 2560 l0 -2560 2560 0 2560 0 0 2560 0 2560 -2560 0 -2560 0 0
-2560z m2900 2220 l0 -30 100 0 100 0 0 -40 0 -40 60 0 60 0 0 -30 c0 -27 3
-30 30 -30 27 0 30 -3 30 -30 0 -28 2 -30 40 -30 38 0 40 -2 40 -30 0 -27 3
-30 30 -30 l30 0 0 -70 0 -70 30 0 30 0 0 -220 0 -220 -30 0 -30 0 0 -60 0
-60 -30 0 -30 0 0 -70 0 -70 30 0 30 0 0 -130 0 -130 -30 0 -30 0 0 -60 0 -60
-40 0 c-38 0 -40 -2 -40 -30 0 -27 -3 -30 -30 -30 -27 0 -30 -3 -30 -30 l0
-30 -60 0 -60 0 0 -40 0 -40 -100 0 -100 0 0 -30 0 -30 -380 0 -380 0 0 30 0
30 -100 0 -100 0 0 40 0 40 -60 0 -60 0 0 30 c0 27 -3 30 -30 30 -27 0 -30 3
-30 30 0 28 -2 30 -40 30 l-40 0 0 60 0 60 -30 0 -30 0 0 130 0 130 30 0 30 0
0 70 0 70 -30 0 -30 0 0 60 0 60 -30 0 -30 0 0 220 0 220 30 0 30 0 0 70 0 70
30 0 c27 0 30 3 30 30 0 28 2 30 40 30 38 0 40 2 40 30 0 27 3 30 30 30 27 0
30 3 30 30 l0 30 60 0 60 0 0 40 0 40 100 0 100 0 0 30 0 30 380 0 380 0 0
-30z m-1340 -1540 c0 -27 3 -30 30 -30 27 0 30 -3 30 -30 0 -27 3 -30 30 -30
28 0 30 -2 30 -40 l0 -40 70 0 70 0 0 -30 c0 -27 3 -30 30 -30 27 0 30 -3 30
-30 0 -27 3 -30 30 -30 27 0 30 -3 30 -30 l0 -30 70 0 70 0 0 -30 0 -30 60 0
60 0 0 -40 c0 -38 2 -40 30 -40 27 0 30 -3 30 -30 0 -27 -3 -30 -30 -30 l-30
0 0 -130 0 -130 30 0 30 0 0 -250 0 -250 230 0 230 0 0 320 0 320 30 0 30 0 0
60 0 60 -30 0 c-27 0 -30 3 -30 30 l0 30 60 0 60 0 0 40 0 40 100 0 100 0 0
30 c0 27 3 30 30 30 27 0 30 3 30 30 l0 30 60 0 60 0 0 30 c0 27 3 30 30 30
l30 0 0 70 0 70 40 0 c38 0 40 2 40 30 0 27 3 30 30 30 27 0 30 3 30 30 l0 30
160 0 160 0 0 -30 0 -30 -70 0 -70 0 0 -30 c0 -27 -3 -30 -30 -30 -28 0 -30
-2 -30 -40 0 -38 -2 -40 -30 -40 -27 0 -30 -3 -30 -30 0 -27 -3 -30 -30 -30
-27 0 -30 -3 -30 -30 0 -27 -3 -30 -30 -30 -27 0 -30 -3 -30 -30 0 -28 -2 -30
-40 -30 -38 0 -40 -2 -40 -30 l0 -30 -90 0 -90 0 0 -40 0 -40 -70 0 -70 0 0
-280 0 -280 40 0 40 0 0 90 0 90 30 0 c27 0 30 3 30 30 l0 30 60 0 60 0 0 40
0 40 70 0 70 0 0 30 c0 27 3 30 30 30 27 0 30 3 30 30 0 27 3 30 30 30 l30 0
0 100 0 100 30 0 c27 0 30 3 30 30 0 27 3 30 30 30 27 0 30 -3 30 -30 0 -27
-3 -30 -30 -30 l-30 0 0 -230 0 -230 30 0 c27 0 30 -3 30 -30 l0 -30 70 0 70
0 0 -30 0 -30 130 0 130 0 0 30 0 30 60 0 60 0 0 30 c0 27 3 30 30 30 27 0 30
3 30 30 0 27 3 30 30 30 28 0 30 2 30 40 l0 40 40 0 40 0 0 60 0 60 30 0 30 0
0 60 0 60 30 0 30 0 0 70 0 70 -190 0 -190 0 0 30 c0 27 -3 30 -30 30 -27 0
-30 3 -30 30 0 28 -2 30 -40 30 l-40 0 0 70 0 70 70 0 70 0 0 -40 c0 -38 2
-40 30 -40 27 0 30 -3 30 -30 0 -27 3 -30 30 -30 27 0 30 3 30 30 l0 30 70 0
70 0 0 40 0 40 60 0 60 0 0 30 0 30 130 0 130 0 0 -30 c0 -27 3 -30 30 -30 28
0 30 -2 30 -40 0 -38 -2 -40 -30 -40 -27 0 -30 -3 -30 -30 0 -27 -3 -30 -30
-30 -27 0 -30 -3 -30 -30 l0 -30 -70 0 -70 0 0 -100 0 -100 -30 0 -30 0 0 -60
0 -60 -30 0 -30 0 0 -60 0 -60 -30 0 c-28 0 -30 -2 -30 -40 l0 -40 -40 0 c-38
0 -40 -2 -40 -30 0 -27 -3 -30 -30 -30 -27 0 -30 -3 -30 -30 0 -27 -3 -30 -30
-30 -27 0 -30 -3 -30 -30 l0 -30 -60 0 -60 0 0 -30 0 -30 -160 0 -160 0 0 30
c0 28 -2 30 -40 30 l-40 0 0 -190 0 -190 -30 0 -30 0 0 -70 0 -70 -60 0 -60 0
0 30 0 30 -320 0 -320 0 0 40 0 40 -190 0 -190 0 0 -40 0 -40 -160 0 -160 0 0
-30 0 -30 -290 0 -290 0 0 30 c0 27 -3 30 -30 30 l-30 0 0 200 0 200 -40 0
-40 0 0 -40 0 -40 -160 0 -160 0 0 40 0 40 -60 0 -60 0 0 30 c0 27 -3 30 -30
30 -27 0 -30 3 -30 30 0 27 -3 30 -30 30 -27 0 -30 3 -30 30 0 28 -2 30 -40
30 -38 0 -40 2 -40 30 0 27 -3 30 -30 30 l-30 0 0 70 0 70 -30 0 -30 0 0 60 0
60 -30 0 -30 0 0 100 0 100 -70 0 -70 0 0 30 c0 27 -3 30 -30 30 -27 0 -30 3
-30 30 0 27 -3 30 -30 30 -27 0 -30 3 -30 30 0 27 3 30 30 30 28 0 30 2 30 40
l0 40 130 0 130 0 0 -40 0 -40 60 0 60 0 0 -30 0 -30 70 0 70 0 0 -30 c0 -27
3 -30 30 -30 27 0 30 3 30 30 0 27 3 30 30 30 27 0 30 3 30 30 l0 30 70 0 70
0 0 -60 0 -60 -40 0 c-38 0 -40 -2 -40 -30 0 -27 -3 -30 -30 -30 -27 0 -30 -3
-30 -30 l0 -30 -190 0 -190 0 0 -70 0 -70 30 0 30 0 0 -60 0 -60 30 0 30 0 0
-70 0 -70 40 0 c38 0 40 -2 40 -30 0 -27 3 -30 30 -30 27 0 30 -3 30 -30 0
-27 3 -30 30 -30 27 0 30 -3 30 -30 l0 -30 60 0 60 0 0 -30 0 -30 130 0 130 0
0 30 0 30 70 0 70 0 0 30 c0 27 3 30 30 30 l30 0 0 220 0 220 -30 0 c-28 0
-30 2 -30 40 l0 40 60 0 60 0 0 -160 0 -160 30 0 c28 0 30 -2 30 -40 0 -38 2
-40 30 -40 28 0 30 2 30 40 l0 40 130 0 130 0 0 160 0 160 -30 0 c-27 0 -30 3
-30 30 l0 30 -60 0 -60 0 0 30 c0 28 -2 30 -40 30 -38 0 -40 2 -40 30 l0 30
-90 0 -90 0 0 30 c0 27 -3 30 -30 30 -28 0 -30 2 -30 40 l0 40 -70 0 -70 0 0
30 c0 27 3 30 30 30 27 0 30 3 30 30 l0 30 100 0 100 0 0 -30z m2180 -130 c0
-38 2 -40 30 -40 27 0 30 -3 30 -30 0 -27 3 -30 30 -30 27 0 30 -3 30 -30 0
-27 3 -30 30 -30 27 0 30 -3 30 -30 0 -28 2 -30 40 -30 38 0 40 -2 40 -30 0
-28 -2 -30 -40 -30 l-40 0 0 -70 0 -70 -30 0 -30 0 0 100 0 100 -30 0 c-27 0
-30 3 -30 30 0 27 -3 30 -30 30 l-30 0 0 60 0 60 -30 0 c-28 0 -30 2 -30 40 0
38 2 40 30 40 28 0 30 -2 30 -40z m-2380 -70 c0 -27 -3 -30 -30 -30 l-30 0 0
-60 0 -60 -30 0 c-27 0 -30 -3 -30 -30 0 -27 -3 -30 -30 -30 l-30 0 0 -100 0
-100 -30 0 -30 0 0 60 0 60 -40 0 -40 0 0 40 0 40 40 0 c38 0 40 2 40 30 0 27
3 30 30 30 27 0 30 3 30 30 0 27 3 30 30 30 27 0 30 3 30 30 0 27 3 30 30 30
27 0 30 3 30 30 0 27 3 30 30 30 27 0 30 -3 30 -30z m960 -120 l0 -30 160 0
160 0 0 30 c0 28 2 30 40 30 l40 0 0 -60 0 -60 -40 0 -40 0 0 -70 0 -70 -120
0 -120 0 0 30 c0 28 -2 30 -40 30 l-40 0 0 40 c0 38 -2 40 -30 40 l-30 0 0 60
0 60 30 0 c27 0 30 -3 30 -30z m260 -320 c0 -27 3 -30 30 -30 l30 0 0 -290 0
-290 -160 0 -160 0 0 320 0 320 130 0 130 0 0 -30z m540 -1130 l0 -160 40 0
40 0 0 -220 0 -220 30 0 c27 0 30 -3 30 -30 l0 -30 60 0 60 0 0 30 0 30 100 0
100 0 0 190 0 190 -30 0 -30 0 0 130 0 130 -40 0 -40 0 0 60 0 60 40 0 40 0 0
-60 0 -60 30 0 30 0 0 -130 0 -130 30 0 30 0 0 -220 0 -220 -130 0 -130 0 0
-30 0 -30 -350 0 -350 0 0 30 c0 27 -3 30 -30 30 l-30 0 0 190 0 190 -30 0
-30 0 0 100 0 100 -40 0 -40 0 0 -160 0 -160 -30 0 -30 0 0 -130 0 -130 -30 0
c-27 0 -30 -3 -30 -30 l0 -30 -290 0 -290 0 0 30 0 30 -160 0 -160 0 0 190 0
190 30 0 30 0 0 160 0 160 40 0 c38 0 40 2 40 30 0 27 3 30 30 30 27 0 30 -3
30 -30 0 -27 -3 -30 -30 -30 l-30 0 0 -160 0 -160 -40 0 -40 0 0 -160 0 -160
70 0 70 0 0 160 0 160 30 0 30 0 0 130 0 130 30 0 30 0 0 60 0 60 70 0 70 0 0
-60 0 -60 -40 0 -40 0 0 -130 0 -130 -30 0 -30 0 0 -190 0 -190 290 0 290 0 0
160 0 160 30 0 30 0 0 130 0 130 30 0 c27 0 30 3 30 30 0 28 2 30 40 30 38 0
40 -2 40 -30 0 -27 3 -30 30 -30 l30 0 0 -100 0 -100 30 0 30 0 0 -190 0 -190
190 0 190 0 0 130 0 130 -30 0 -30 0 0 280 0 280 60 0 60 0 0 -160z m-120
-830 l0 -30 190 0 190 0 0 -30 c0 -27 -3 -30 -30 -30 -27 0 -30 -3 -30 -30 l0
-30 60 0 60 0 0 30 0 30 70 0 70 0 0 30 0 30 90 0 90 0 0 -30 0 -30 70 0 70 0
0 -30 c0 -27 3 -30 30 -30 l30 0 0 -70 0 -70 -30 0 c-27 0 -30 -3 -30 -30 l0
-30 -320 0 -320 0 0 70 0 70 -190 0 -190 0 0 60 0 60 30 0 30 0 0 60 0 60 30
0 c27 0 30 -3 30 -30z m-1340 -60 l0 -30 60 0 60 0 0 30 0 30 130 0 130 0 0
-90 0 -90 -60 0 -60 0 0 30 c0 28 -2 30 -40 30 l-40 0 0 -70 0 -70 40 0 c38 0
40 -2 40 -30 l0 -30 -320 0 -320 0 0 100 0 100 30 0 c27 0 30 3 30 30 0 27 3
30 30 30 27 0 30 3 30 30 l0 30 130 0 130 0 0 -30z m440 -260 l0 -30 -60 0
-60 0 0 30 0 30 60 0 60 0 0 -30z m1100 0 l0 -30 -200 0 -200 0 0 30 0 30 200
0 200 0 0 -30z"/>
<path d="M2780 4200 c0 -27 -3 -30 -30 -30 l-30 0 0 -130 0 -130 30 0 30 0 0
-60 0 -60 30 0 c28 0 30 -2 30 -40 0 -38 2 -40 30 -40 27 0 30 -3 30 -30 l0
-30 70 0 70 0 0 30 0 30 -70 0 -70 0 0 40 0 40 130 0 130 0 0 30 0 30 60 0 60
0 0 30 c0 28 2 30 40 30 l40 0 0 100 0 100 -40 0 c-38 0 -40 2 -40 30 l0 30
-60 0 -60 0 0 30 0 30 -190 0 -190 0 0 -30z m260 -230 l0 -60 -70 0 -70 0 0
60 0 60 70 0 70 0 0 -60z"/>
<path d="M2260 4010 l0 -100 -30 0 c-27 0 -30 -3 -30 -30 l0 -30 -160 0 -160
0 0 30 0 30 -60 0 -60 0 0 30 c0 28 -2 30 -40 30 -38 0 -40 -2 -40 -30 0 -28
2 -30 40 -30 38 0 40 -2 40 -30 l0 -30 60 0 60 0 0 -30 0 -30 130 0 130 0 0
-40 c0 -38 -2 -40 -30 -40 -27 0 -30 -3 -30 -30 0 -27 3 -30 30 -30 27 0 30 3
30 30 0 27 3 30 30 30 28 0 30 2 30 40 0 38 2 40 30 40 l30 0 0 60 0 60 30 0
30 0 0 100 0 100 -30 0 -30 0 0 -100z"/>
<path d="M2460 3850 l0 -60 -30 0 -30 0 0 -100 0 -100 120 0 120 0 0 100 0
100 -30 0 -30 0 0 60 0 60 -60 0 -60 0 0 -60z"/>
<path d="M1880 3590 l0 -60 -60 0 -60 0 0 -30 0 -30 60 0 60 0 0 -40 c0 -38 2
-40 30 -40 27 0 30 -3 30 -30 0 -27 3 -30 30 -30 27 0 30 -3 30 -30 l0 -30 70
0 70 0 0 -30 0 -30 60 0 60 0 0 -30 0 -30 290 0 290 0 0 30 0 30 60 0 60 0 0
30 c0 28 2 30 40 30 38 0 40 2 40 30 0 27 3 30 30 30 27 0 30 3 30 30 0 27 3
30 30 30 28 0 30 2 30 40 l0 40 60 0 60 0 0 30 c0 27 -3 30 -30 30 -27 0 -30
3 -30 30 0 27 -3 30 -30 30 -27 0 -30 3 -30 30 0 27 -3 30 -30 30 l-30 0 0
-60 0 -60 -70 0 -70 0 0 -30 0 -30 -410 0 -410 0 0 30 0 30 -70 0 -70 0 0 30
c0 27 -3 30 -30 30 -27 0 -30 3 -30 30 0 27 -3 30 -30 30 l-30 0 0 -60z m120
-130 l0 -70 -30 0 -30 0 0 70 0 70 30 0 30 0 0 -70z m140 -30 l0 -40 60 0 60
0 0 -60 0 -60 -60 0 -60 0 0 30 c0 27 -3 30 -30 30 l-30 0 0 70 0 70 30 0 c28
0 30 -2 30 -40z m900 -30 l0 -70 -40 0 -40 0 0 70 0 70 40 0 40 0 0 -70z
m-580 -100 l0 -90 -70 0 -70 0 0 90 0 90 70 0 70 0 0 -90z m260 0 l0 -90 -100
0 -100 0 0 90 0 90 100 0 100 0 0 -90z m180 30 l0 -60 -30 0 c-27 0 -30 -3
-30 -30 0 -27 -3 -30 -30 -30 l-30 0 0 90 0 90 60 0 60 0 0 -60z"/>
<path d="M2000 2660 l0 -90 70 0 70 0 0 90 0 90 -70 0 -70 0 0 -90z"/>
<path d="M2840 2630 l0 -60 30 0 30 0 0 60 0 60 -30 0 -30 0 0 -60z"/>
<path d="M2000 2470 l0 -40 -160 0 -160 0 0 -30 0 -30 -60 0 -60 0 0 -30 c0
-27 -3 -30 -30 -30 l-30 0 0 -190 0 -190 60 0 60 0 0 -30 c0 -27 3 -30 30 -30
28 0 30 -2 30 -40 l0 -40 200 0 200 0 0 160 0 160 30 0 30 0 0 -90 0 -90 30 0
30 0 0 90 0 90 -30 0 c-28 0 -30 2 -30 40 0 38 2 40 30 40 l30 0 0 60 0 60
-30 0 c-27 0 -30 3 -30 30 0 27 3 30 30 30 27 0 30 3 30 30 0 27 -3 30 -30 30
-28 0 -30 2 -30 40 l0 40 -70 0 -70 0 0 -40z m80 -100 l0 -60 30 0 c27 0 30
-3 30 -30 0 -27 -3 -30 -30 -30 l-30 0 0 -70 0 -70 -40 0 -40 0 0 160 0 160
40 0 40 0 0 -60z"/>
<path d="M2840 2470 c0 -38 -2 -40 -30 -40 -27 0 -30 -3 -30 -30 l0 -30 60 0
60 0 0 70 0 70 -30 0 c-28 0 -30 -2 -30 -40z"/>
<path d="M3420 2470 l0 -40 -70 0 -70 0 0 -30 0 -30 -90 0 -90 0 0 -90 0 -90
-30 0 -30 0 0 -70 0 -70 -40 0 -40 0 0 70 0 70 -30 0 -30 0 0 60 0 60 -60 0
-60 0 0 -60 0 -60 60 0 60 0 0 -70 0 -70 30 0 c27 0 30 -3 30 -30 0 -27 -3
-30 -30 -30 l-30 0 0 -60 0 -60 260 0 260 0 0 30 c0 27 3 30 30 30 27 0 30 3
30 30 0 27 3 30 30 30 l30 0 0 160 0 160 -30 0 -30 0 0 100 0 100 -30 0 c-28
0 -30 -2 -30 -40z"/>
<path d="M2780 2020 l0 -90 30 0 30 0 0 90 0 90 -30 0 -30 0 0 -90z"/>
<path d="M3260 460 c0 -27 3 -30 30 -30 27 0 30 3 30 30 0 27 -3 30 -30 30
-27 0 -30 -3 -30 -30z"/>
<path d="M1780 520 c0 -27 3 -30 30 -30 27 0 30 3 30 30 0 27 -3 30 -30 30
-27 0 -30 -3 -30 -30z"/>
</g>
</svg>
